<?xml version="1.0" encoding="UTF-8"?>
<svg xmlns="http://www.w3.org/2000/svg" width="411" height="581" viewBox="0 0 411 581">
  <path fill="currentColor" fill-rule="evenodd" d="M 119.0 382.5 L 85.0 381.5 L 75.0 378.5 L 70.0 375.5 L 61.5 366.0 L 58.5 357.0 L 58.5 346.0 L 60.5 340.0 L 65.5 332.0 L 72.0 326.5 L 82.0 322.5 L 113.0 323.5 L 129.0 320.5 L 144.0 313.5 L 158.5 301.0 L 164.5 293.0 L 170.5 281.0 L 174.5 269.0 L 175.5 259.0 L 176.5 258.0 L 176.5 249.0 L 177.5 248.0 L 177.5 220.0 L 176.5 218.0 L 197.0 203.5 L 213.5 187.0 L 226.5 169.0 L 234.5 154.0 L 239.0 142.5 L 253.0 156.5 L 263.0 161.5 L 277.0 164.5 L 295.0 161.5 L 312.0 151.5 L 323.5 138.0 L 328.5 128.0 L 332.5 116.0 L 334.5 100.0 L 335.5 99.0 L 335.5 52.0 L 336.5 51.0 L 336.5 43.0 L 339.5 30.0 L 343.5 22.0 L 352.0 12.5 L 363.0 7.5 L 373.0 6.5 L 381.0 8.5 L 388.0 12.5 L 394.5 19.0 L 399.5 28.0 L 403.5 44.0 L 403.5 111.0 L 402.5 112.0 L 402.5 123.0 L 399.5 139.0 L 391.5 161.0 L 381.5 177.0 L 367.0 192.5 L 355.0 201.5 L 339.0 210.5 L 319.0 217.5 L 303.0 220.5 L 297.0 220.5 L 296.0 221.5 L 276.0 221.5 L 275.0 220.5 L 273.0 221.5 L 272.0 220.5 L 260.0 219.5 L 241.0 213.5 L 240.5 254.0 L 239.5 255.0 L 239.5 266.0 L 236.5 282.0 L 231.5 300.0 L 216.5 329.0 L 210.5 337.0 L 194.0 353.5 L 173.0 367.5 L 148.0 377.5 L 136.0 380.5 L 120.0 381.5 L 119.0 382.5 Z M 128.0 221.5 L 99.0 220.5 L 86.0 217.5 L 70.0 211.5 L 55.0 203.5 L 43.0 194.5 L 26.5 178.0 L 19.5 168.0 L 9.5 149.0 L 5.5 138.0 L 2.5 126.0 L 1.5 111.0 L 0.5 110.0 L 0.5 96.0 L 1.5 95.0 L 1.5 84.0 L 3.5 74.0 L 7.5 61.0 L 15.5 44.0 L 26.5 29.0 L 35.0 21.5 L 54.0 10.5 L 70.0 6.5 L 85.0 6.5 L 86.0 7.5 L 87.0 6.5 L 102.0 10.5 L 114.0 17.5 L 123.5 26.0 L 128.5 32.0 L 130.5 36.0 L 130.0 37.5 L 127.0 35.5 L 122.0 34.5 L 112.0 34.5 L 102.0 36.5 L 89.0 42.5 L 76.5 54.0 L 66.5 71.0 L 61.5 91.0 L 62.5 114.0 L 68.5 133.0 L 74.5 143.0 L 86.0 154.5 L 96.0 160.5 L 106.0 163.5 L 118.0 164.5 L 134.0 160.5 L 146.0 153.5 L 156.5 143.0 L 165.5 127.0 L 169.5 114.0 L 171.5 97.0 L 172.5 96.0 L 171.5 95.0 L 172.5 93.0 L 172.5 65.0 L 173.5 64.0 L 174.5 54.0 L 178.5 41.0 L 186.5 27.0 L 196.0 17.5 L 203.0 12.5 L 221.0 6.5 L 223.0 7.5 L 225.0 6.5 L 241.0 7.5 L 253.0 11.5 L 260.0 15.5 L 274.5 29.0 L 276.5 33.0 L 267.0 37.5 L 256.5 47.0 L 250.5 55.0 L 245.5 65.0 L 239.5 85.0 L 236.5 110.0 L 231.5 130.0 L 222.5 152.0 L 217.5 161.0 L 200.5 184.0 L 182.0 200.5 L 170.0 208.5 L 155.0 215.5 L 141.0 219.5 L 129.0 220.5 L 128.0 221.5 Z M 281.0 382.5 L 248.0 381.5 L 240.0 379.5 L 231.0 374.5 L 224.5 367.0 L 220.5 358.0 L 220.5 345.0 L 222.5 339.0 L 225.5 334.0 L 231.0 328.5 L 240.0 323.5 L 249.0 321.5 L 266.0 322.5 L 267.0 323.5 L 288.0 321.5 L 305.0 314.5 L 314.0 308.5 L 321.5 301.0 L 328.5 291.0 L 336.5 272.0 L 338.5 263.0 L 338.5 256.0 L 339.5 255.0 L 339.5 223.0 L 357.0 214.5 L 374.0 202.5 L 387.5 189.0 L 398.5 174.0 L 401.5 168.0 L 404.0 166.5 L 404.5 245.0 L 403.5 246.0 L 402.5 268.0 L 395.5 297.0 L 384.5 321.0 L 375.5 334.0 L 361.0 349.5 L 350.0 358.5 L 336.0 367.5 L 311.0 377.5 L 291.0 381.5 L 282.0 381.5 L 281.0 382.5 Z M 110.0 548.5 L 43.0 548.5 L 37.0 546.5 L 32.5 542.0 L 31.5 540.0 L 31.5 445.0 L 30.5 444.0 L 33.5 436.0 L 38.0 432.5 L 40.0 431.5 L 111.0 431.5 L 116.5 436.0 L 117.5 443.0 L 115.5 447.0 L 110.0 450.5 L 53.5 451.0 L 54.0 479.5 L 104.0 479.5 L 108.0 481.5 L 111.5 486.0 L 110.5 494.0 L 106.0 498.5 L 103.0 499.5 L 54.0 499.5 L 53.5 528.0 L 110.0 528.5 L 113.0 529.5 L 117.5 534.0 L 118.5 540.0 L 117.5 543.0 L 113.0 547.5 L 110.0 548.5 Z M 326.0 574.5 L 314.0 574.5 L 308.0 572.5 L 303.5 569.0 L 301.5 565.0 L 301.5 561.0 L 305.0 555.5 L 310.0 553.5 L 314.0 555.5 L 322.0 556.5 L 329.5 551.0 L 332.5 545.0 L 327.5 537.0 L 327.5 535.0 L 301.5 481.0 L 298.5 473.0 L 298.5 466.0 L 302.0 461.5 L 307.0 459.5 L 314.0 460.5 L 317.5 464.0 L 332.5 500.0 L 336.5 507.0 L 341.5 521.0 L 343.0 521.5 L 364.5 464.0 L 367.0 461.5 L 372.0 459.5 L 379.0 460.5 L 383.5 466.0 L 383.5 473.0 L 366.5 515.0 L 363.5 520.0 L 360.5 530.0 L 356.5 537.0 L 353.5 547.0 L 346.5 561.0 L 342.5 566.0 L 337.0 570.5 L 326.0 574.5 Z M 233.0 574.5 L 217.0 573.5 L 211.0 570.5 L 208.5 567.0 L 208.5 560.0 L 212.0 555.5 L 216.0 553.5 L 224.0 556.5 L 229.0 556.5 L 235.5 552.0 L 238.5 547.0 L 238.5 544.0 L 229.5 527.0 L 229.5 525.0 L 211.5 487.0 L 205.5 472.0 L 205.5 467.0 L 211.0 460.5 L 214.0 459.5 L 221.0 460.5 L 224.5 464.0 L 249.0 522.5 L 271.5 464.0 L 276.0 460.5 L 283.0 459.5 L 287.0 461.5 L 290.5 466.0 L 290.5 473.0 L 265.5 531.0 L 259.5 548.0 L 253.5 560.0 L 248.0 566.5 L 243.0 570.5 L 233.0 574.5 Z M 167.0 550.5 L 153.0 549.5 L 142.0 546.5 L 133.0 541.5 L 127.5 535.0 L 128.5 527.0 L 131.0 524.5 L 136.0 522.5 L 140.0 523.5 L 150.0 530.5 L 162.0 533.5 L 171.0 532.5 L 177.5 528.0 L 178.5 523.0 L 175.0 517.5 L 169.0 514.5 L 150.0 509.5 L 140.0 504.5 L 134.5 499.0 L 131.5 493.0 L 130.5 489.0 L 131.5 478.0 L 136.5 469.0 L 145.0 462.5 L 160.0 458.5 L 175.0 459.5 L 182.0 461.5 L 190.0 465.5 L 195.5 471.0 L 195.5 478.0 L 190.0 483.5 L 185.0 483.5 L 172.0 476.5 L 161.0 475.5 L 154.0 477.5 L 150.5 483.0 L 150.5 485.0 L 151.5 488.0 L 156.0 491.5 L 179.0 498.5 L 189.0 503.5 L 195.5 510.0 L 199.5 521.0 L 198.5 530.0 L 196.5 535.0 L 190.0 542.5 L 181.0 547.5 L 167.0 550.5 Z"/>
</svg>
